<?xml version="1.0" ?><svg viewBox="0 0 256 256" xmlns="http://www.w3.org/2000/svg"><g><path d="m198.91 44.12c-2.88.4-15.48 21.39-18.32 20-3.24-1.55 10.09-23.4 10-25.87s-25.88-16.25-28.75-15.71-9.48 14.35-12.93 12.93c-3-1.26 6.13-14 5.29-16.23s-16.94-7.05-18.92-6.08c-7 3.47-58.35 94.58-57.72 102.56.66 8.34 27.25 19.19 19 33.4-8 13.81-36.66 52-43.92 65.73-11.11 21 20.36 38.09 31 21.37 7.62-12 30-59.81 37.38-72.5s30.42 1.69 37.38-1.76c8.93-2.68 60.83-97.84 60.77-101.8-.04-2.56-17.37-16.44-20.26-16.04z" fill="#191919"/><path d="m71 251a29 29 0 0 1 -14.53-4.11c-11.35-6.6-18.75-21-10.91-35.79 4.16-7.84 14.44-22.56 24.4-36.8 8-11.38 16.17-23.14 19.67-29.19 1.45-2.52-.56-5.42-9-12.94-5.46-4.88-10.62-9.5-11.12-15.82-.18-2.3-.66-8.4 27-57.53s32.98-51.72 35.22-52.82c4.74-2.35 13.89.38 20.73 3.08 3.73 1.47 6.62 3 8.29 5.53 2.49-.39 5.76.06 17.05 5.9 5.34 2.76 12.36 6.75 16.05 9.65a11.62 11.62 0 0 1 4.44 6c2.25-.25 6.87 0 19.84 11.15 6.69 5.73 9 9 9 12.75 0 2.14.06 3.55-9.13 21.05-5.36 10.22-12.27 22.77-18.94 34.44-28 49-34.26 52.77-37.88 54-5.06 2.12-10.92.67-17.65-1-5.59-1.39-14-3.48-15.63-.74-3.1 5.37-9.21 17.68-15.68 30.7-8.55 17.21-17.38 35-21.87 42.08a22.45 22.45 0 0 1 -19.35 10.41zm14.86-136.06a63.64 63.64 0 0 0 5.51 5.31c7.68 6.87 20.54 18.36 12.16 32.87-3.84 6.65-11.89 18.17-20.41 30.36-9.22 13.19-19.68 28.15-23.37 35.12-4.5 8.49 3.22 13.54 4.81 14.47 2.94 1.71 9.29 3.66 12.33-1.13 4-6.37 13.08-24.57 21.05-40.63 6.58-13.26 12.8-25.78 16.15-31.59 7.6-13.16 23.71-9.17 33.33-6.79a56.59 56.59 0 0 0 7.76 1.58c3-2.92 12.08-15.51 30.24-47.3 11.58-20.32 21.11-38.33 24.58-45.74a97.1 97.1 0 0 0 -9.54-7.65c-1.08 1.38-2.27 3-3.22 4.23-2.2 2.93-4.48 6-6.53 8.31s-7.1 8.11-13.61 5a8.77 8.77 0 0 1 -4.54-5.13c-1.69-4.94.58-10.22 7-23l1.32-2.63a166.29 166.29 0 0 0 -16.81-9l-1 1.32c-4 5.55-9.48 13.15-17.3 9.93a8.86 8.86 0 0 1 -5-5.17c-1.7-4.6.52-9.27 3.23-14.63-2-.65-4.14-1.28-5.81-1.66-10.55 13.25-47.89 79.73-52.33 93.55z" fill="#191919"/></g><g><path d="m199 45.38c-2.88.4-15.35 22.34-19 19.75-3.87-2.75 9.23-23.9 9.13-26.37s-24.38-15.33-27.25-14.76-9.37 15-13.5 13.13c-4.38-2 5.34-15.77 4.5-18s-15.4-6.13-17.38-5.13c-7 3.47-58.57 93.75-57.94 101.73.66 8.34 27.25 19.19 19 33.4-8 13.81-36.66 52-43.92 65.73-11.11 21 20.36 38.09 31 21.37 7.62-12 30-59.81 37.38-72.5s30.42 1.69 37.38-1.76c8.93-2.68 60-97.26 60-101.21-.07-2.58-16.52-15.76-19.4-15.38z" fill="#fff"/></g><g><path d="m198.91 44.09c-2.88.4-15.48 21.4-18.32 20-3.24-1.55 10.09-23.39 10-25.86s-25.88-16.23-28.75-15.69-9.48 14.35-12.93 12.93c-3-1.26 6.13-14 5.29-16.23s-16.94-7.05-18.92-6.08c-3.91 1.93-16.92 22.64-29.6 45-3.1 5.34 16.37 13.41 39.42 19.11 12.29 3 17.94 11.9 17.66 20.65-.33 10.43 13.67 9.34 13.67-.18 0-9.78 9.69-13.05 18.07-13.8s14.37-1.9 16.27-5.35c5.11-9.57 8.43-16.6 8.4-18.48-.04-2.57-17.37-16.42-20.26-16.02z" fill="#e83a2a"/></g></svg>